<?xml version="1.0" encoding="UTF-8"?>
<svg id="_Слой_2" data-name="Слой 2" xmlns="http://www.w3.org/2000/svg" viewBox="0 0 131.26 74.09">
  <defs>
    <style>
      .cls-1 {
        letter-spacing: -.1em;
      }

      .cls-2 {
        letter-spacing: -.03em;
      }

      .cls-3 {
        font-family: AktivGroteskCorp-Light, 'Aktiv Grotesk Corp';
        font-size: 21px;
        font-weight: 300;
      }

      .cls-4 {
        font-family: AktivGroteskCorp-Bold, 'Aktiv Grotesk Corp';
        font-size: 21.74px;
        font-weight: 700;
      }

      .cls-5 {
        letter-spacing: -.02em;
      }

      .cls-6 {
        letter-spacing: -.04em;
      }
    </style>
  </defs>
  <g id="_Слой_2-2" data-name="Слой 2">
    <g>
      <g>
        <path d="m29.44,52.17v-.05c-.73-.17-6.01-1.54-7.89-6.57-.08-.22-1.74-4.88.77-8.71.33-.5,1.03-1.54,2.32-2.32,1.73-1.05,3.56-1.05,6.06-1.03,2.67.02,3.43.44,5-.16.46-.18,1.5-.59,2.35-1.58.74-.86.7-1.4,1.61-3.97,1.03-2.9,1.48-3.29,1.74-3.48.66-.47,1.49-.63,3.55-.42,3.1.32,4.61,1.03,6.19,1.35,2.97.6,5.31-.36,7.6-1.11,5.17-1.7,23.78-6.86,49.74-14.03h0c.68-.44,1.85-1.06,3.43-1.31.57-.09,1.57-.24,2.71,0,2.21.46,2.72,1.91,4.45,2.71.87.4,2.18.7,4.15.24l-2.16-9.78c-4.66.85-9.32,1.71-13.97,2.56h-.02c-.83.97-1.67,1.94-2.5,2.9h-.02c-16.81,4.43-33.62,8.85-50.43,13.27l-.37-.28c-.03-2.98-.06-5.96-.09-8.94l-.26-.88c-.49-.76-1.34-1.76-2.65-2.18-.97-.31-2.56-.89-5.4.13-2.43.87-4.05,1.16-5.74,2.65-3.74,3.28-3.55,4.09-6.66,5.35-1.24.5-3.15,1.13-5.95.68-2.25-.37-2.85-.95-5.47-1.84-2.05-.7-4.15-.68-8.35-.65-4.06.03-5.98.36-7.71,1.03-2.18.84-3.4,2.29-4.05,3.16C-.07,20.92.04,25.65.02,25.41c-.04-.58-.06,2.74.27,5.62.45,3.84,1.7,6.76,2.48,8.32.5,1.01,1.55,2.9,4.31,6.61,1.84,2.47,3.35,3.89,5.18,5.19.91.65,2.12,1.36,2.27,1.45,1.49.87,2.46,1.44,3.73,1.89,1.24.44,3.51,1.24,6,.53,1.05-.3,2.22-.65,3.18-1.19.97-.55,1.47-1.25,2-1.67Z"/>
        <circle cx="107.39" cy="3.24" r="1.08"/>
        <circle cx="111.43" cy="2.47" r="1.08"/>
        <circle cx="115.2" cy="1.69" r="1.08"/>
        <circle cx="118.65" cy="1.08" r="1.08"/>
      </g>
      <text class="cls-4" transform="translate(29.15 51.37) scale(1.03 1)"><tspan x="0" y="0">GUI</tspan><tspan class="cls-1" x="37.26" y="0">T</tspan><tspan x="48.67" y="0">AR</tspan></text>
      <text class="cls-3" transform="translate(43.09 69.51) scale(1.06 1)"><tspan class="cls-2" x="0" y="0">S</tspan><tspan class="cls-5" x="12.83" y="0">CHOO</tspan><tspan class="cls-6" x="72.01" y="0">L</tspan></text>
    </g>
  </g>
</svg>